<?xml version="1.0" encoding="utf-8"?><!DOCTYPE svg PUBLIC "-//W3C//DTD SVG 1.1//EN" "http://www.w3.org/Graphics/SVG/1.1/DTD/svg11.dtd"><svg xmlns="http://www.w3.org/2000/svg" width="456" height="52" fill="#E2001A"><circle cx="156.6" cy="9.3" r="1.4"/><circle cx="156.6" cy="13" r="1.4"/><circle cx="156.6" cy="16.7" r="1.4"/><circle cx="156.6" cy="20.4" r="1.4"/><circle cx="156.6" cy="24" r="1.4"/><circle cx="156.6" cy="27.7" r="1.4"/><circle cx="156.6" cy="31.4" r="1.4"/><circle cx="156.6" cy="35.1" r="1.4"/><circle cx="156.6" cy="38.8" r="1.4"/><circle cx="156.6" cy="42.5" r="1.4"/><circle cx="157.8" cy="45.9" r="1.4"/><circle cx="160.5" cy="48.4" r="1.4"/><circle cx="163.3" cy="50.5" r="1.4"/><circle cx="167.1" cy="50.5" r="1.4"/><circle cx="170.8" cy="50.5" r="1.4"/><circle cx="174.5" cy="50.5" r="1.4"/><circle cx="178.2" cy="50.5" r="1.4"/><circle cx="181.8" cy="50.5" r="1.4"/><circle cx="185.5" cy="50.5" r="1.4"/><circle cx="189.2" cy="50.5" r="1.4"/><circle cx="192.9" cy="50.5" r="1.4"/><circle cx="196.5" cy="49.3" r="1.4"/><circle cx="199.1" cy="46.9" r="1.4"/><circle cx="201.7" cy="44.5" r="1.4"/><circle cx="214.2" cy="50.5" r="1.4"/><circle cx="217.9" cy="50.5" r="1.4"/><circle cx="221.6" cy="50.5" r="1.4"/><circle cx="225.2" cy="50.5" r="1.4"/><circle cx="228.9" cy="50.5" r="1.4"/><circle cx="232.6" cy="50.5" r="1.4"/><circle cx="236.3" cy="50.5" r="1.4"/><circle cx="240" cy="50.5" r="1.4"/><circle cx="210.6" cy="50.5" r="1.4"/><circle cx="207" cy="49.3" r="1.4"/><circle cx="204.5" cy="46.9" r="1.4"/><circle cx="243.6" cy="49.3" r="1.4"/><circle cx="246.2" cy="46.9" r="1.4"/><circle cx="248.8" cy="44.5" r="1.4"/><circle cx="261.3" cy="50.5" r="1.4"/><circle cx="265" cy="50.5" r="1.4"/><circle cx="268.7" cy="50.5" r="1.4"/><circle cx="272.3" cy="50.5" r="1.4"/><circle cx="276" cy="50.5" r="1.4"/><circle cx="279.7" cy="50.5" r="1.4"/><circle cx="283.4" cy="50.5" r="1.4"/><circle cx="287.1" cy="50.5" r="1.4"/><circle cx="257.7" cy="50.5" r="1.4"/><circle cx="254.1" cy="49.3" r="1.4"/><circle cx="251.6" cy="46.9" r="1.4"/><circle cx="287.1" cy="50.5" r="1.4"/><circle cx="290.7" cy="49.3" r="1.4"/><circle cx="293.2" cy="46.9" r="1.4"/><circle cx="295.9" cy="44.5" r="1.4"/><circle cx="308.4" cy="50.5" r="1.4"/><circle cx="312" cy="50.5" r="1.4"/><circle cx="315.7" cy="50.5" r="1.4"/><circle cx="319.4" cy="50.5" r="1.4"/><circle cx="323.1" cy="50.5" r="1.4"/><circle cx="326.8" cy="50.5" r="1.4"/><circle cx="330.5" cy="50.5" r="1.4"/><circle cx="334.1" cy="50.5" r="1.4"/><circle cx="304.8" cy="50.5" r="1.4"/><circle cx="301.2" cy="49.3" r="1.4"/><circle cx="298.6" cy="46.9" r="1.4"/><circle cx="341" cy="42.5" r="1.4"/><circle cx="341" cy="38.9" r="1.4"/><circle cx="341" cy="35.2" r="1.4"/><circle cx="341" cy="31.5" r="1.4"/><circle cx="341" cy="27.8" r="1.4"/><circle cx="341" cy="24.1" r="1.4"/><circle cx="341" cy="20.4" r="1.4"/><circle cx="341" cy="16.8" r="1.4"/><circle cx="341" cy="13.1" r="1.4"/><circle cx="341" cy="9.4" r="1.4"/><circle cx="339.8" cy="5.9" r="1.4"/><circle cx="337.1" cy="3.5" r="1.4"/><circle cx="334.3" cy="1.4" r="1.4"/><circle cx="330.5" cy="1.4" r="1.4"/><circle cx="326.8" cy="1.4" r="1.4"/><circle cx="323.1" cy="1.4" r="1.4"/><circle cx="319.4" cy="1.4" r="1.4"/><circle cx="315.8" cy="1.4" r="1.4"/><circle cx="312.1" cy="1.4" r="1.4"/><circle cx="308.4" cy="1.4" r="1.4"/><circle cx="304.7" cy="1.4" r="1.4"/><circle cx="301.1" cy="2.5" r="1.4"/><circle cx="298.5" cy="5" r="1.4"/><circle cx="295.9" cy="7.4" r="1.4"/><circle cx="283.4" cy="1.4" r="1.4"/><circle cx="279.7" cy="1.4" r="1.4"/><circle cx="276" cy="1.4" r="1.4"/><circle cx="272.4" cy="1.4" r="1.4"/><circle cx="268.7" cy="1.4" r="1.4"/><circle cx="265" cy="1.4" r="1.4"/><circle cx="261.3" cy="1.4" r="1.4"/><circle cx="257.6" cy="1.4" r="1.4"/><circle cx="287" cy="1.4" r="1.4"/><circle cx="290.5" cy="2.5" r="1.4"/><circle cx="293.1" cy="5" r="1.4"/><circle cx="254" cy="2.5" r="1.4"/><circle cx="251.4" cy="5" r="1.4"/><circle cx="248.8" cy="7.4" r="1.4"/><circle cx="236.3" cy="1.4" r="1.4"/><circle cx="232.6" cy="1.4" r="1.4"/><circle cx="228.9" cy="1.4" r="1.4"/><circle cx="225.3" cy="1.4" r="1.4"/><circle cx="221.6" cy="1.4" r="1.4"/><circle cx="217.9" cy="1.4" r="1.4"/><circle cx="214.2" cy="1.4" r="1.4"/><circle cx="210.5" cy="1.4" r="1.4"/><circle cx="239.9" cy="1.4" r="1.4"/><circle cx="243.5" cy="2.5" r="1.4"/><circle cx="246" cy="5" r="1.4"/><circle cx="210.5" cy="1.4" r="1.4"/><circle cx="206.9" cy="2.5" r="1.4"/><circle cx="204.4" cy="5" r="1.4"/><circle cx="201.7" cy="7.4" r="1.4"/><circle cx="189.2" cy="1.4" r="1.4"/><circle cx="185.6" cy="1.4" r="1.4"/><circle cx="181.9" cy="1.4" r="1.4"/><circle cx="178.2" cy="1.4" r="1.4"/><circle cx="174.5" cy="1.4" r="1.4"/><circle cx="170.8" cy="1.4" r="1.4"/><circle cx="167.1" cy="1.4" r="1.4"/><circle cx="163.5" cy="1.4" r="1.4"/><circle cx="192.8" cy="1.4" r="1.4"/><circle cx="196.4" cy="2.5" r="1.4"/><circle cx="199" cy="5" r="1.4"/><circle cx="339.9" cy="45.9" r="1.4"/><circle cx="337.2" cy="48.4" r="1.4"/><circle cx="158" cy="6.1" r="1.4"/><circle cx="160.5" cy="3.4" r="1.4"/><circle cx="364.4" cy="9.3" r="1.4"/><circle cx="364.4" cy="13" r="1.4"/><circle cx="364.4" cy="16.7" r="1.4"/><circle cx="364.4" cy="20.4" r="1.4"/><circle cx="364.4" cy="24" r="1.4"/><circle cx="364.4" cy="27.7" r="1.4"/><circle cx="364.4" cy="31.4" r="1.4"/><circle cx="364.4" cy="35.1" r="1.4"/><circle cx="364.4" cy="38.8" r="1.4"/><circle cx="364.4" cy="42.5" r="1.4"/><circle cx="365.6" cy="45.9" r="1.4"/><circle cx="368.3" cy="48.4" r="1.4"/><circle cx="371.1" cy="50.5" r="1.4"/><circle cx="374.9" cy="50.5" r="1.4"/><circle cx="378.6" cy="50.5" r="1.4"/><circle cx="382.3" cy="50.5" r="1.4"/><circle cx="386" cy="50.5" r="1.4"/><circle cx="389.7" cy="50.5" r="1.4"/><circle cx="393.3" cy="50.5" r="1.4"/><circle cx="397" cy="50.5" r="1.4"/><circle cx="400.7" cy="50.5" r="1.4"/><circle cx="404.3" cy="49.3" r="1.4"/><circle cx="406.9" cy="46.9" r="1.4"/><circle cx="409.5" cy="44.5" r="1.4"/><circle cx="422" cy="50.5" r="1.4"/><circle cx="425.7" cy="50.5" r="1.4"/><circle cx="429.4" cy="50.5" r="1.4"/><circle cx="433" cy="50.5" r="1.4"/><circle cx="436.7" cy="50.5" r="1.4"/><circle cx="440.4" cy="50.5" r="1.4"/><circle cx="444.1" cy="50.5" r="1.4"/><circle cx="447.8" cy="50.5" r="1.4"/><circle cx="418.4" cy="50.5" r="1.4"/><circle cx="414.9" cy="49.3" r="1.4"/><circle cx="412.3" cy="46.9" r="1.4"/><circle cx="454.6" cy="42.5" r="1.4"/><circle cx="454.6" cy="38.9" r="1.4"/><circle cx="454.6" cy="35.2" r="1.4"/><circle cx="454.6" cy="31.5" r="1.4"/><circle cx="454.6" cy="27.8" r="1.4"/><circle cx="454.6" cy="24.1" r="1.4"/><circle cx="454.6" cy="20.4" r="1.4"/><circle cx="454.6" cy="16.8" r="1.4"/><circle cx="454.6" cy="13.1" r="1.4"/><circle cx="454.6" cy="9.4" r="1.4"/><circle cx="453.5" cy="5.9" r="1.4"/><circle cx="450.8" cy="3.5" r="1.4"/><circle cx="447.9" cy="1.4" r="1.4"/><circle cx="444.1" cy="1.4" r="1.4"/><circle cx="440.4" cy="1.4" r="1.4"/><circle cx="436.8" cy="1.4" r="1.4"/><circle cx="433.1" cy="1.4" r="1.4"/><circle cx="429.4" cy="1.4" r="1.4"/><circle cx="425.7" cy="1.4" r="1.4"/><circle cx="422" cy="1.4" r="1.4"/><circle cx="418.3" cy="1.4" r="1.4"/><circle cx="418.3" cy="1.4" r="1.4"/><circle cx="414.8" cy="2.5" r="1.4"/><circle cx="412.2" cy="5" r="1.4"/><circle cx="409.5" cy="7.4" r="1.4"/><circle cx="397" cy="1.4" r="1.4"/><circle cx="393.4" cy="1.4" r="1.4"/><circle cx="389.7" cy="1.4" r="1.4"/><circle cx="386" cy="1.4" r="1.4"/><circle cx="382.3" cy="1.4" r="1.4"/><circle cx="378.6" cy="1.4" r="1.4"/><circle cx="374.9" cy="1.4" r="1.4"/><circle cx="371.3" cy="1.4" r="1.4"/><circle cx="400.6" cy="1.4" r="1.4"/><circle cx="404.2" cy="2.5" r="1.4"/><circle cx="406.8" cy="5" r="1.4"/><circle cx="453.5" cy="45.9" r="1.4"/><circle cx="450.8" cy="48.4" r="1.4"/><circle cx="365.8" cy="6.1" r="1.4"/><circle cx="368.3" cy="3.4" r="1.4"/><path fill="#006AB3" d="M8.5 29.7h7.7c6 0 10.1-3.6 11.4-9.8 1.3-6.4-1.3-9.8-7.7-9.8h-13.6l-6.3 30.4h6.3l2.2-10.8zm1.2-5.6l1.8-8.8h6.5c2.9 0 4.1 1.5 3.5 4.4-.7 3.1-2.4 4.4-5.6 4.4h-6.2z"/><path fill="#006AB3" d="M39.9 25.3c-2 9.9 2.4 16.1 11.6 16.1s16.2-6.2 18.3-16.1c2-9.9-2.5-16.1-11.6-16.1s-16.2 6.2-18.3 16.1zm6.4 0c1.4-6.8 5.4-10.6 10.7-10.6 5.4 0 7.8 3.8 6.4 10.6-1.4 6.8-5.4 10.6-10.8 10.6-5.3 0-7.7-3.8-6.3-10.6z"/><path fill="#006AB3" d="M81.9 31.1c-1 6.5 2.7 10.3 10.4 10.3 7.9 0 13-3.7 14.4-10 .7-3.1-.1-5.4-2.3-6.8-1.7-1.1-3.9-1.7-6.7-2.4-4.8-1.3-7.1-1.3-6.5-4.2.5-2.3 2.6-3.7 5.9-3.7 3.8 0 5.5 1.6 5.1 4.5h6c1.1-6.1-2.4-9.7-9.5-9.7-7.7 0-12.4 3.3-13.7 9.2-.7 3.2 0 5.6 1.9 6.9 1.7 1.3 3.9 1.7 6.3 2.3 5.3 1.3 7.8 1.8 7.2 4.6-.5 2.5-2.6 3.9-6.3 3.9-4.2 0-6.2-1.5-5.9-4.9h-6.3z"/><polygon fill="#006AB3" points="127.5,40.5 133.8,40.5 139,15.4 148,15.4 149.1,10 124.8,10 123.7,15.4 132.7,15.4 127.5,40.5"/><path fill="#006AB3" d="M193.6 30.1h-6.2c-1.5 3.7-4.4 5.6-8.2 5.6-5.2 0-7.5-3.7-6.1-10.4 1.4-6.8 5.1-10.5 10.6-10.5 3.9 0 5.9 1.9 5.6 5.3h6.2c1-6.9-2.8-10.9-10.7-10.9-9.6 0-16 5.7-18.2 16.1-2.1 10.2 2 16.1 11 16.1 8 0 14.1-4.5 16-11.3z"/><path fill="#006AB3" d="M212.1 25.3c-2 9.9 2.4 16.1 11.6 16.1 9.1 0 16.2-6.2 18.3-16.1 2-9.9-2.5-16.1-11.6-16.1-9.2 0-16.3 6.2-18.3 16.1zm6.4 0c1.4-6.8 5.4-10.6 10.7-10.6 5.3 0 7.8 3.8 6.4 10.6s-5.4 10.6-10.8 10.6-7.7-3.8-6.3-10.6z"/><path fill="#006AB3" d="M256.6 40.5h10.3c4.4 0 7.8-.3 11.2-2.7 3.7-2.5 6.4-6.8 7.6-12.5 2.1-10.3-1.4-15.3-10.8-15.3h-12l-6.3 30.5zm7.3-5.5l4.1-19.7h5.8c5.2 0 6.9 3.1 5.5 9.9-1.4 6.9-4.5 9.7-10.3 9.7h-5.1v.1z"/><polygon fill="#006AB3" points="301.9,40.5 324.8,40.5 326,34.9 309.2,34.9 310.9,27 325.5,27 326.6,21.8 311.9,21.8 313.3,15.3	329.3,15.3 330.4,10 308.2,10 301.9,40.5"/><polygon fill="#006AB3" points="372.6,40.5 378.8,40.5 383.2,19.6 391.3,40.5 397.8,40.5 404.2,10 398,10 393.6,31 385.6,10 379,10	372.6,40.5"/><polygon fill="#006AB3" points="417.9,40.5 439.1,40.5 440.3,34.9 425.4,34.9 430.5,10 424.2,10 417.9,40.5"/><path fill="#006AB3" d="M356.8 25.7c0-2.4-2-4.4-4.4-4.4-2.5 0-4.4 2-4.4 4.4 0 2.5 2 4.4 4.4 4.4 2.4 0 4.4-2 4.4-4.4z"/></svg>